<?xml version="1.0" encoding="UTF-8"?>
<svg viewBox="0 0 40 40" xmlns="http://www.w3.org/2000/svg">
<rect width="40" height="40" rx="20" fill="#FF3E79"/>
<path d="m12 11c0-0.5523 0.4477-1 1-1h14c0.5523 0 1 0.4477 1 1v17.5c-0.8284 0-1.4999 0.6715-1.5 1.4999h-1c-1e-4 -0.8284-0.6716-1.4999-1.5-1.4999s-1.4999 0.6715-1.5 1.4999h-1c-1e-4 -0.8284-0.6716-1.4999-1.5-1.4999s-1.4999 0.6715-1.5 1.4999h-1c-1e-4 -0.8284-0.6716-1.4999-1.5-1.4999s-1.4999 0.6715-1.5 1.4999h-1c-1e-4 -0.8284-0.6716-1.4999-1.5-1.4999v-17.5zm9.4163 10.788c-0.8627 0.5559-1.946 0.8052-3.0867 0.5943-1.8022-0.3355-3.2401-1.8501-3.4701-3.6713-0.3643-2.8853 2.0897-5.2913 4.9943-4.8312 1.8022 0.2875 3.2496 1.7637 3.5468 3.5563 0.1822 1.1119-0.0767 2.1376-0.6135 2.9907l2.1089 2.0993c0.3739 0.3738 0.3739 0.9873 0 1.3611-0.3834 0.3835-0.9969 0.3835-1.3708 0.0096l-2.1089-2.1088zm-4.7104-3.7296c0-1.2989 1.0541-2.353 2.3529-2.353s2.353 1.0541 2.353 2.353c0 1.2988-1.0542 2.3529-2.353 2.3529s-2.3529-1.0541-2.3529-2.3529z" clip-rule="evenodd" fill="#fff" fill-rule="evenodd"/>
</svg>
