<?xml version="1.0" encoding="UTF-8"?>
<svg fill="none" viewBox="0 0 18 18" xmlns="http://www.w3.org/2000/svg">
<path d="m2.7935 1.2571c-0.39053-0.39053-1.0237-0.39053-1.4142 0l-0.12215 0.12215c-0.39053 0.39052-0.39053 1.0237 0 1.4142l6.2065 6.2065-6.2065 6.2065c-0.39053 0.3905-0.39053 1.0237 0 1.4142l0.12215 0.1222c0.39052 0.3905 1.0237 0.3905 1.4142 0l6.2065-6.2065 6.2065 6.2065c0.3905 0.3905 1.0237 0.3905 1.4142 0l0.1222-0.1222c0.3905-0.3905 0.3905-1.0237 0-1.4142l-6.2065-6.2065 6.2065-6.2065c0.3905-0.39052 0.3905-1.0237 0-1.4142l-0.1222-0.12215c-0.3905-0.39053-1.0237-0.39053-1.4142 0l-6.2065 6.2065-6.2065-6.2065z" clip-rule="evenodd" fill="#fff" fill-rule="evenodd"/>
</svg>
