<?xml version="1.0" encoding="UTF-8"?>
<svg fill="none" viewBox="0 0 8 11" xmlns="http://www.w3.org/2000/svg">
<path d="m1.4999 10.5 2.5-2.5 2.5 2.5c0.27615 0.2762 0.72386 0.2762 1 0 0.27615-0.2761 0.27615-0.72383 0-0.99998l-2.7929-2.7929c-0.39052-0.39052-1.0237-0.39052-1.4142 0l-2.7929 2.7929c-0.27614 0.27614-0.27614 0.72387 0 0.99997 0.27614 0.2762 0.72386 0.2762 1 0zm0-6 2.5-2.5 2.5 2.5c0.27615 0.27615 0.72386 0.27615 1 0 0.27615-0.27614 0.27615-0.72385 0-1l-2.7929-2.7929c-0.39052-0.39052-1.0237-0.39052-1.4142-1e-6l-2.7929 2.7929c-0.27614 0.27614-0.27614 0.72385 0 1 0.27614 0.27614 0.72386 0.27614 1-1e-5z" clip-rule="evenodd" fill="#41F6D7" fill-rule="evenodd"/>
</svg>
