<?xml version="1.0" encoding="UTF-8"?>
<svg viewBox="0 0 119 32" xmlns="http://www.w3.org/2000/svg">
<rect width="119" height="32" rx="16" fill="#FF3E79"/>
<path d="m20.003 14.24c0 0.288-0.056 0.52-0.168 0.696-0.112 0.168-0.236 0.3-0.372 0.396-0.16 0.112-0.34 0.188-0.54 0.228v0.12c0.224 0.048 0.424 0.136 0.6 0.264 0.152 0.112 0.288 0.272 0.408 0.48 0.128 0.2 0.192 0.472 0.192 0.816v0.78c0 1.4-0.7 2.1-2.1 2.1h-3.3c-1.4 0-2.1-0.7-2.1-2.1v-0.6c0-0.2 0.1-0.3 0.3-0.3h1.32c0.2 0 0.3 0.1 0.3 0.3v0.36c0 0.44 0.22 0.66 0.66 0.66h2.34c0.44 0 0.66-0.22 0.66-0.66v-0.54c0-0.44-0.22-0.66-0.66-0.66h-1.74c-0.2 0-0.3-0.1-0.3-0.3v-1.08c0-0.2 0.1-0.3 0.3-0.3h1.62c0.44 0 0.66-0.22 0.66-0.66v-0.42c0-0.44-0.22-0.66-0.66-0.66h-2.1c-0.44 0-0.66 0.22-0.66 0.66v0.36c0 0.2-0.1 0.3-0.3 0.3h-1.32c-0.2 0-0.3-0.1-0.3-0.3v-0.6c0-1.4 0.7-2.1 2.1-2.1h3.06c1.4 0 2.1 0.7 2.1 2.1v0.66zm3.4902 4.02-0.54 1.44c-0.04 0.088-0.092 0.16-0.156 0.216-0.056 0.056-0.144 0.084-0.264 0.084h-1.5c-0.2 0-0.26-0.1-0.18-0.3l2.94-7.8c0.08-0.2 0.24-0.3 0.48-0.3h1.74c0.12 0 0.208 0.028 0.264 0.084 0.064 0.056 0.116 0.128 0.156 0.216l2.94 7.8c0.08 0.2 0.02 0.3-0.18 0.3h-1.5c-0.12 0-0.212-0.028-0.276-0.084-0.056-0.056-0.104-0.128-0.144-0.216l-0.54-1.44h-3.24zm2.64-1.68-0.96-2.58h-0.12l-0.96 2.58h2.04zm6.1299-1.8h1.62l1.56-2.88c0.048-0.088 0.108-0.16 0.18-0.216 0.08-0.056 0.18-0.084 0.3-0.084h1.5c0.088 0 0.152 0.028 0.192 0.084s0.036 0.128-0.012 0.216l-2.04 3.66 2.28 4.14c0.048 0.088 0.052 0.16 0.012 0.216s-0.104 0.084-0.192 0.084h-1.5c-0.12 0-0.22-0.028-0.3-0.084-0.072-0.056-0.132-0.128-0.18-0.216l-1.74-3.24h-1.68v3.24c0 0.2-0.1 0.3-0.3 0.3h-1.32c-0.2 0-0.3-0.1-0.3-0.3v-7.8c0-0.2 0.1-0.3 0.3-0.3h1.32c0.2 0 0.3 0.1 0.3 0.3v2.88zm8.391 3.48-0.54 1.44c-0.04 0.088-0.092 0.16-0.156 0.216-0.056 0.056-0.144 0.084-0.264 0.084h-1.5c-0.2 0-0.26-0.1-0.18-0.3l2.94-7.8c0.08-0.2 0.24-0.3 0.48-0.3h1.74c0.12 0 0.208 0.028 0.264 0.084 0.064 0.056 0.116 0.128 0.156 0.216l2.94 7.8c0.08 0.2 0.02 0.3-0.18 0.3h-1.5c-0.12 0-0.212-0.028-0.276-0.084-0.056-0.056-0.104-0.128-0.144-0.216l-0.54-1.44h-3.24zm2.64-1.68-0.96-2.58h-0.12l-0.96 2.58h2.04zm11.23-2.34c0 0.288-0.056 0.52-0.168 0.696-0.112 0.168-0.236 0.3-0.372 0.396-0.16 0.112-0.34 0.188-0.54 0.228v0.12c0.224 0.048 0.424 0.136 0.6 0.264 0.152 0.112 0.288 0.272 0.408 0.48 0.128 0.2 0.192 0.472 0.192 0.816v0.78c0 1.4-0.7 2.1-2.1 2.1h-3.3c-1.4 0-2.1-0.7-2.1-2.1v-0.6c0-0.2 0.1-0.3 0.3-0.3h1.32c0.2 0 0.3 0.1 0.3 0.3v0.36c0 0.44 0.22 0.66 0.66 0.66h2.34c0.44 0 0.66-0.22 0.66-0.66v-0.54c0-0.44-0.22-0.66-0.66-0.66h-1.74c-0.2 0-0.3-0.1-0.3-0.3v-1.08c0-0.2 0.1-0.3 0.3-0.3h1.62c0.44 0 0.66-0.22 0.66-0.66v-0.42c0-0.44-0.22-0.66-0.66-0.66h-2.1c-0.44 0-0.66 0.22-0.66 0.66v0.36c0 0.2-0.1 0.3-0.3 0.3h-1.32c-0.2 0-0.3-0.1-0.3-0.3v-0.6c0-1.4 0.7-2.1 2.1-2.1h3.06c1.4 0 2.1 0.7 2.1 2.1v0.66zm3.4902 4.02-0.54 1.44c-0.04 0.088-0.092 0.16-0.156 0.216-0.056 0.056-0.144 0.084-0.264 0.084h-1.5c-0.2 0-0.26-0.1-0.18-0.3l2.94-7.8c0.08-0.2 0.24-0.3 0.48-0.3h1.74c0.12 0 0.208 0.028 0.264 0.084 0.064 0.056 0.116 0.128 0.156 0.216l2.94 7.8c0.08 0.2 0.02 0.3-0.18 0.3h-1.5c-0.12 0-0.212-0.028-0.276-0.084-0.056-0.056-0.104-0.128-0.144-0.216l-0.54-1.44h-3.24zm2.64-1.68-0.96-2.58h-0.12l-0.96 2.58h2.04zm6.7946 3.12c0 0.2-0.1 0.3-0.3 0.3h-1.32c-0.2 0-0.3-0.1-0.3-0.3v-6.42h-2.4c-0.2 0-0.3-0.1-0.3-0.3v-1.08c0-0.2 0.1-0.3 0.3-0.3h6.72c0.2 0 0.3 0.1 0.3 0.3v1.08c0 0.2-0.1 0.3-0.3 0.3h-2.4v6.42zm8.7286-5.58c1.4 0 2.1 0.7 2.1 2.1v1.68c0 1.4-0.7 2.1-2.1 2.1h-4.8c-0.2 0-0.3-0.1-0.3-0.3v-7.8c0-0.2 0.1-0.3 0.3-0.3h1.32c0.2 0 0.3 0.1 0.3 0.3v2.22h3.18zm-0.48 4.2c0.44 0 0.66-0.22 0.66-0.66v-1.2c0-0.44-0.22-0.66-0.66-0.66h-2.7v2.52h2.7z" fill="#fff"/>
<rect x="87" y="4" width="24" height="24" rx="12" fill="#FF3E79"/>
<path d="m99.8 16-3.0084-2.7709c-0.4275-0.3937-0.4305-1.0676-0.0065-1.4651l0.1352-0.1267c0.3829-0.359 0.9782-0.3609 1.3633-0.0043l4.6544 4.3097c0.033 0.0309 0.033 0.0837 0 0.1146l-4.5913 4.2513c-0.4206 0.3895-1.0709 0.3875-1.4891-0.0046-0.4631-0.4342-0.4599-1.1703 7e-3 -1.6003l2.9354-2.7037z" clip-rule="evenodd" fill="#fff" fill-rule="evenodd"/>
</svg>
