<?xml version="1.0" encoding="UTF-8"?>
<svg viewBox="0 0 40 40" xmlns="http://www.w3.org/2000/svg">
<rect width="40" height="40" rx="20" fill="#FF3E79"/>
<path d="m18.258 23.458 0.4087-0.4089-1.7168-1.7172-0.4088 0.4089-0.2044-0.2044c-0.327-0.368-0.654-0.5724-0.981-0.5315-0.2453 0-0.4497 0.1635-0.6132 0.4088-0.2453 0.4089-0.1226 0.8586-0.0818 1.1448 0 0.0818 0.0409 0.1227 0.0409 0.2044 0 0.1227 0 0.2862-0.2861 0.3271-0.4088 0.1227-0.9402 0.2453-1.4716 0.5315-0.7358 0.4089-1.2264 0.7769-1.5125 1.1448-1.5125 1.9625-1.4307 3.6389-1.4307 3.7206 0 0.1227 0.0409 0.2045 0.1226 0.2453l1.1037 1.1448c0.0818 0.0818 0.1635 0.1227 0.2453 0.1227h0.1226c0.4088 0 1.8804-0.0818 3.5972-1.431 0.3679-0.2862 0.7358-0.7768 1.1446-1.5128 0.2862-0.4906 0.4497-1.0221 0.5314-1.4718 0.0818-0.2862 0.2044-0.2862 0.3271-0.2862 0.0408 0 0.1226 0.0408 0.2043 0.0408 0.1635 0.0409 0.3271 0.0818 0.5314 0.0818 0.2044 0 0.4088-0.0409 0.6132-0.1635 0.2453-0.1636 0.4088-0.368 0.4497-0.6133 0.0408-0.3271-0.1227-0.6542-0.4906-0.9404l-0.2452-0.2453z" fill="#fff"/>
<path d="m26.884 14.878 1.1348-0.5524c0.0421-0.0425 0.1261-0.085 0.1681-0.1274l1.7232-2.337c0.1261-0.17 0.1261-0.4249-0.042-0.5524l-1.1768-1.1897c-0.1261-0.12751-0.3783-0.17-0.5464-0.0425l-2.3116 1.7421c-0.042 0.0425-0.084 0.085-0.1261 0.1699l-0.5463 1.1473-4.1609 4.0791 1.7652 1.7846 4.1188-4.1216z" fill="#fff"/>
<path d="m27.853 23.045c-0.9891-1.0412-2.4134-1.416-3.7586-1.0412l-6.4488-6.8303c0.0791-0.3748 0.1187-0.708 0.1187-1.0828 0-1.0412-0.3957-2.0824-1.1474-2.8738-1.0286-1.1244-2.5716-1.4993-3.9959-0.9995-0.0791 0.0416-0.1978 0.1666-0.2374 0.3332 0 0.1249 0.0396 0.2499 0.1187 0.3748l1.9386 2.0408c0.4352 0.4581 0.4352 1.2494 0 1.7075-0.4352 0.4582-1.1869 0.4582-1.6221 0l-1.9386-2.0407c-0.1187-0.0833-0.2374-0.125-0.3956-0.0833-0.1187 0-0.2374 0.1249-0.277 0.2499-0.47474 1.4577-0.1187 3.0819 0.91 4.1648 0.7121 0.7913 1.7408 1.2078 2.7694 1.2078 0.3165 0 0.6726-0.0417 0.9891-0.125l6.4884 6.8303c-0.356 1.416 0.0396 2.9154 0.9891 3.9566 0.7517 0.7913 1.7013 1.1661 2.7299 1.1661 0.4352 0 0.8308-0.0833 1.266-0.2082 0.1187-0.0417 0.2374-0.1666 0.277-0.2916 0.0396-0.1249 0-0.2915-0.1187-0.3748l-1.9386-2.0408c-0.1978-0.2082-0.3561-0.5414-0.3561-0.8746s0.1187-0.6247 0.3561-0.8746 0.5143-0.3748 0.8308-0.3748 0.5935 0.1249 0.8309 0.3748l1.9386 2.0408c0.1187 0.0833 0.2373 0.1249 0.356 0.1249 0.1187-0.0416 0.2374-0.1249 0.277-0.2499 0.1187-0.4164 0.1978-0.8746 0.1978-1.3327 0-1.0829-0.3956-2.1241-1.1473-2.8737z" fill="#fff"/>
</svg>
