<?xml version="1.0" encoding="UTF-8"?>
<svg viewBox="0 0 136 32" xmlns="http://www.w3.org/2000/svg">
<rect width="136" height="32" rx="16" fill="#FF3E79"/>
<path d="m28.305 18.02c0 1.4-0.7 2.1-2.1 2.1h-3.66c-1.4 0-2.1-0.7-2.1-2.1v-4.44c0-1.4 0.7-2.1 2.1-2.1h3.66c1.4 0 2.1 0.7 2.1 2.1v4.44zm-1.92-4.2c0-0.44-0.22-0.66-0.66-0.66h-2.7c-0.44 0-0.66 0.22-0.66 0.66v3.96c0 0.44 0.22 0.66 0.66 0.66h2.7c0.44 0 0.66-0.22 0.66-0.66v-3.96zm7.349 5.88c0 0.2-0.1 0.3-0.3 0.3h-1.32c-0.2 0-0.3-0.1-0.3-0.3v-6.42h-2.4c-0.2 0-0.3-0.1-0.3-0.3v-1.08c0-0.2 0.1-0.3 0.3-0.3h6.72c0.2 0 0.3 0.1 0.3 0.3v1.08c0 0.2-0.1 0.3-0.3 0.3h-2.4v6.42zm10.829-8.1c0.2 0 0.3 0.1 0.3 0.3v7.8c0 0.2-0.1 0.3-0.3 0.3h-1.32c-0.2 0-0.3-0.1-0.3-0.3v-6.42h-3.66v6.42c0 0.2-0.1 0.3-0.3 0.3h-1.32c-0.2 0-0.3-0.1-0.3-0.3v-7.8c0-0.2 0.1-0.3 0.3-0.3h6.9zm3.9919 5.94v2.16c0 0.2-0.1 0.3-0.3 0.3h-1.32c-0.2 0-0.3-0.1-0.3-0.3v-7.8c0-0.2 0.1-0.3 0.3-0.3h4.92c1.4 0 2.1 0.7 2.1 2.1v1.74c0 1.4-0.7 2.1-2.1 2.1h-3.3zm0-4.26v2.58h2.82c0.44 0 0.66-0.22 0.66-0.66v-1.26c0-0.44-0.22-0.66-0.66-0.66h-2.82zm8.1684 4.98-0.54 1.44c-0.04 0.088-0.092 0.16-0.156 0.216-0.056 0.056-0.144 0.084-0.264 0.084h-1.5c-0.2 0-0.26-0.1-0.18-0.3l2.94-7.8c0.08-0.2 0.24-0.3 0.48-0.3h1.74c0.12 0 0.208 0.028 0.264 0.084 0.064 0.056 0.116 0.128 0.156 0.216l2.94 7.8c0.08 0.2 0.02 0.3-0.18 0.3h-1.5c-0.12 0-0.212-0.028-0.276-0.084-0.056-0.056-0.104-0.128-0.144-0.216l-0.54-1.44h-3.24zm2.64-1.68-0.96-2.58h-0.12l-0.96 2.58h2.04zm4.2099-4.68c0-0.2 0.1-0.3 0.3-0.3h4.5c1.4 0 2.1 0.7 2.1 2.1v0.42c0 0.288-0.044 0.52-0.132 0.696-0.088 0.168-0.184 0.3-0.288 0.396-0.128 0.112-0.268 0.188-0.42 0.228v0.12c0.24 0.048 0.46 0.136 0.66 0.264 0.16 0.112 0.308 0.272 0.444 0.48 0.144 0.2 0.216 0.472 0.216 0.816v0.78c0 1.4-0.7 2.1-2.1 2.1h-4.98c-0.2 0-0.3-0.1-0.3-0.3v-7.8zm4.8 6.42c0.44 0 0.66-0.22 0.66-0.66v-0.54c0-0.44-0.22-0.66-0.66-0.66h-2.88v1.86h2.88zm-2.88-5.04v1.5h2.4c0.44 0 0.66-0.22 0.66-0.66v-0.18c0-0.44-0.22-0.66-0.66-0.66h-2.4zm12.511 1.26-3.24 5.16c-0.064 0.088-0.132 0.16-0.204 0.216-0.064 0.056-0.156 0.084-0.276 0.084h-1.62c-0.2 0-0.3-0.1-0.3-0.3v-7.8c0-0.2 0.1-0.3 0.3-0.3h1.32c0.2 0 0.3 0.1 0.3 0.3v5.16h0.12l3.24-5.16c0.064-0.088 0.128-0.16 0.192-0.216 0.072-0.056 0.168-0.084 0.288-0.084h1.62c0.2 0 0.3 0.1 0.3 0.3v7.8c0 0.2-0.1 0.3-0.3 0.3h-1.32c-0.2 0-0.3-0.1-0.3-0.3v-5.16h-0.12zm7.5877 5.16c0 0.2-0.1 0.3-0.3 0.3h-1.32c-0.2 0-0.3-0.1-0.3-0.3v-6.42h-2.4c-0.2 0-0.3-0.1-0.3-0.3v-1.08c0-0.2 0.1-0.3 0.3-0.3h6.72c0.2 0 0.3 0.1 0.3 0.3v1.08c0 0.2-0.1 0.3-0.3 0.3h-2.4v6.42zm8.7285-5.58c1.4 0 2.1 0.7 2.1 2.1v1.68c0 1.4-0.7 2.1-2.1 2.1h-4.8c-0.2 0-0.3-0.1-0.3-0.3v-7.8c0-0.2 0.1-0.3 0.3-0.3h1.32c0.2 0 0.3 0.1 0.3 0.3v2.22h3.18zm-0.48 4.2c0.44 0 0.66-0.22 0.66-0.66v-1.2c0-0.44-0.22-0.66-0.66-0.66h-2.7v2.52h2.7z" fill="#fff"/>
<rect x="99.429" y="4" width="27.429" height="24" rx="12" fill="#FF3E79"/>
<path d="m114.06 16-3.385-2.7282c-0.494-0.3981-0.497-1.1495-7e-3 -1.5518l0.248-0.2029c0.367-0.301 0.895-0.3026 1.263-0.0039l5.446 4.4123c0.048 0.0384 0.048 0.1107 0 0.1491l-5.347 4.3319c-0.426 0.3456-1.037 0.3437-1.461-0.0044-0.567-0.4653-0.563-1.3342 8e-3 -1.7946l3.235-2.6075z" clip-rule="evenodd" fill="#fff" fill-rule="evenodd"/>
</svg>
