<?xml version="1.0" encoding="UTF-8"?>
<svg fill="none" viewBox="0 0 16 20" xmlns="http://www.w3.org/2000/svg">
<path d="m-8.5769e-6 0.99998c0-0.55228 0.44772-1 1-1h14c0.5523 0 1 0.44772 1 1v17.5c-0.8284 0-1.5 0.6715-1.5 1.4999h-1c-1e-4 -0.8284-0.6716-1.4999-1.5-1.4999s-1.5 0.6715-1.5 1.4999h-1c-5e-5 -0.8284-0.6716-1.4999-1.5-1.4999s-1.5 0.6715-1.5 1.4999h-1c-4e-5 -0.8284-0.6716-1.4999-1.5-1.4999s-1.5 0.6715-1.5 1.4999h-1c-4e-5 -0.8284-0.6716-1.4999-1.5-1.4999v-17.5zm9.4163 10.788c-0.86274 0.556-1.946 0.8052-3.0867 0.5944-1.8022-0.3355-3.2401-1.8501-3.4701-3.6714-0.36427-2.8853 2.0898-5.2913 4.9943-4.8312 1.8022 0.28757 3.2496 1.7638 3.5468 3.5563 0.1821 1.1119-0.0767 2.1376-0.6135 2.9908l2.1089 2.0992c0.3739 0.3739 0.3739 0.9874 0 1.3612-0.3834 0.3834-0.9969 0.3834-1.3708 0.0096l-2.1089-2.1089zm-4.7105-3.7296c0-1.2988 1.0541-2.3529 2.3529-2.3529 1.2988 0 2.3529 1.0541 2.3529 2.3529 0 1.2988-1.0541 2.353-2.3529 2.353-1.2988 0-2.3529-1.0541-2.3529-2.353z" clip-rule="evenodd" fill="#fff" fill-rule="evenodd"/>
</svg>
