<?xml version="1.0" encoding="UTF-8"?>
<svg fill="none" viewBox="0 0 98 52" xmlns="http://www.w3.org/2000/svg">
<path d="m36.57 0.59253c-0.5523 0-1 0.44771-1 1v4.275c0 0.55229 0.4477 1 1 1h36.327c10.127 0 18.08 7.7966 18.08 17.89 0 0.2855 0.2315 0.517 0.5171 0.517h5.2622c0.2855 0 0.517-0.2315 0.517-0.517 0-13.489-10.842-24.164-24.377-24.164h-36.327z" clip-rule="evenodd" fill="#6B7B84" fill-rule="evenodd" stroke="#80949F" stroke-width=".5"/>
<path d="m7.1068 25.712c0-0.242-0.19623-0.4383-0.43829-0.4383h-5.5042c-0.24206 0-0.43829 0.1963-0.43829 0.4383 0 13.649 10.223 24.919 23.443 25.656l42.342 0.0378c0.5526 5e-4 1.0009-0.4474 1.0009-1v-4.5797c0-0.5522-0.4478-1-1-1h-40.885c-10.236-0.0283-18.52-8.5437-18.52-19.114z" clip-rule="evenodd" fill="#6B7B84" fill-rule="evenodd" stroke="#80949F" stroke-width=".5"/>
<path d="m28.142 39.792c2.7388 0 5.0201-0.5321 7.2734-1.6269l0.1555-0.1456v-7.8344l-0.8431 1.0794c-1.6224 1.7729-3.8014 2.7488-6.2665 2.7488-4.5916 0-9.2033-2.9678-9.2033-8.6399 0-4.2864 3.1806-8.8418 9.0418-8.8418 1.1695 0 4.0137 0.2765 6.4239 2.836l0.8472 1.0437v-7.799l-0.1486-0.1474c-2.296-1.1506-4.6375-1.7099-7.3081-1.7099-4.567 0-8.1316 1.2023-10.97 3.6735-1.8003 1.5488-4.803 5.0196-4.803 10.863 0 4.3208 1.5385 7.6952 4.8261 10.622 3.0583 2.6818 6.4494 3.878 10.975 3.878" clip-rule="evenodd" fill="#6B7B84" fill-rule="evenodd"/>
<path d="m28.142 39.792c2.7388 0 5.0201-0.5321 7.2734-1.6269l0.1555-0.1456v-7.8344l-0.8431 1.0794c-1.6224 1.7729-3.8014 2.7488-6.2665 2.7488-4.5916 0-9.2033-2.9678-9.2033-8.6399 0-4.2864 3.1806-8.8418 9.0418-8.8418 1.1695 0 4.0137 0.2765 6.4239 2.836l0.8472 1.0437v-7.799l-0.1486-0.1474c-2.296-1.1506-4.6375-1.7099-7.3081-1.7099-4.567 0-8.1316 1.2023-10.97 3.6735-1.8003 1.5488-4.803 5.0196-4.803 10.863 0 4.3208 1.5385 7.6952 4.8261 10.622 3.0583 2.6818 6.4494 3.878 10.975 3.878" stroke="#80949F" stroke-width=".5"/>
<path d="m47.911 17.289h1.3644c1.2514 0 2.6778 0.0683 3.7573 0.8042 0.5272 0.3765 1.4117 1.2482 1.4117 2.8316 0 1.17-0.5171 2.2191-1.3711 2.8738-1.0951 0.7948-2.3966 0.7492-3.4425 0.7492h-1.7198v-7.2588zm3.0659 12.529c3.2314 0 5.7607-0.9321 7.5173-2.6881 2.1607-2.1563 2.4836-5.1225 2.4836-6.6863 0-1.6732-0.3966-4.9369-3.0567-7.3-2.1805-1.9107-4.507-2.3881-7.7888-2.3881h-8.7545v29.037h6.6586v-9.9745h2.9405z" clip-rule="evenodd" fill="#6B7B84" fill-rule="evenodd"/>
<path d="m47.911 17.289v-0.25h-0.25v0.25h0.25zm5.1217 0.8042 0.1454-0.2035-0.0046-0.0031-0.1408 0.2066zm0.0406 5.7054 0.1469 0.2023 0.0051-0.0039-0.152-0.1984zm-5.1623 0.7492h-0.25v0.25h0.25v-0.25zm10.583 2.5822-0.1766-0.1769-2e-4 1e-4 0.1768 0.1768zm-0.5731-13.986 0.166-0.1869-0.0012-0.0011-0.1648 0.188zm-16.543-2.3881v-0.25h-0.25v0.25h0.25zm0 29.037h-0.25v0.25h0.25v-0.25zm6.6586 0v0.25h0.25v-0.25h-0.25zm0-9.9745v-0.25h-0.25v0.25h0.25zm-0.1254-12.279h1.3644v-0.5h-1.3644v0.5zm1.3644 0c1.2571 0 2.6084 0.0735 3.6165 0.7607l0.2816-0.4131c-1.1509-0.7845-2.6524-0.8476-3.8981-0.8476v0.5zm3.612 0.7576c0.4876 0.3483 1.307 1.1531 1.307 2.6282h0.5c0-1.6916-0.9497-2.6303-1.5163-3.0351l-0.2907 0.4069zm1.307 2.6282c0 1.0959-0.4838 2.0702-1.2732 2.6753l0.3041 0.3969c0.9187-0.7042 1.4691-1.8281 1.4691-3.0722h-0.5zm-1.268 2.6714c-1.0174 0.7385-2.2294 0.7016-3.2956 0.7016v0.5c1.0255 0 2.4166 0.0543 3.5893-0.7969l-0.2937-0.4047zm-3.2956 0.7016h-1.7198v0.5h1.7198v-0.5zm-1.4698 0.25v-7.2588h-0.5v7.2588h0.5zm2.8159 5.5203c3.2798 0 5.8793-0.9472 7.694-2.7613l-0.3535-0.3536c-1.6984 1.6979-4.1576 2.6149-7.3405 2.6149v0.5zm7.6939-2.7611c2.232-2.2275 2.557-5.2781 2.557-6.8633h-0.5c0 1.5424-0.3209 4.4243-2.4102 6.5094l0.3532 0.3539zm2.557-6.8633c0-1.7013-0.4016-5.0537-3.1407-7.4869l-0.332 0.3738c2.5811 2.2929 2.9727 5.4679 2.9727 7.1131h0.5zm-3.1419-7.488c-2.246-1.9681-4.6443-2.4501-7.9536-2.4501v0.5c3.2543 0 5.5091 0.4728 7.624 2.3261l0.3296-0.376zm-7.9536-2.4501h-8.7545v0.5h8.7545v-0.5zm-9.0045 0.25v29.037h0.5v-29.037h-0.5zm0.25 29.287h6.6586v-0.5h-6.6586v0.5zm6.9086-0.25v-9.9745h-0.5v9.9745h0.5zm-0.25-9.7245h2.9405v-0.5h-2.9405v0.5z" fill="#80949F"/>
<path d="m80.953 24.469c-1.4477-1.2826-3.4684-2.0262-5.7619-2.7974-1.6342-0.5686-2.5346-0.8819-3.1349-1.4292-0.4738-0.4022-0.685-0.8388-0.685-1.4159 0-1.264 0.8589-2.6149 3.2702-2.6149 1.6387 0 3.0107 0.7007 4.0783 2.0817l0.4238 0.5484 3.5162-4.4758-0.3205-0.3211c-2.1506-2.1521-4.9844-3.2891-8.1953-3.2891-6.4782 0-9.3781 4.2145-9.3781 8.3914 0 2.2414 0.7993 4.0492 2.3709 5.3707 1.407 1.2059 3.1228 1.8816 4.7687 2.4332l0.186 0.0616c1.4616 0.4831 2.9732 0.9831 3.876 1.7911 0.6281 0.5771 0.908 1.2042 0.908 2.0333 0 1.9001-1.4964 3.177-3.7234 3.177-1.7604 0-4.0785-0.8629-5.3049-3.2841l-0.3208-0.6343-4.3705 4.0458 0.2577 0.3645c1.3944 1.9745 4.541 5.2868 9.9459 5.2868 5.9597 0 10.122-3.8316 10.122-9.3173 0-3.1377-1.3766-4.9999-2.5287-6.0064" clip-rule="evenodd" fill="#6B7B84" fill-rule="evenodd"/>
<path d="m80.953 24.469c-1.4477-1.2826-3.4684-2.0262-5.7619-2.7974-1.6342-0.5686-2.5346-0.8819-3.1349-1.4292-0.4738-0.4022-0.685-0.8388-0.685-1.4159 0-1.264 0.8589-2.6149 3.2702-2.6149 1.6387 0 3.0107 0.7007 4.0783 2.0817l0.4238 0.5484 3.5162-4.4758-0.3205-0.3211c-2.1506-2.1521-4.9844-3.2891-8.1953-3.2891-6.4782 0-9.3781 4.2145-9.3781 8.3914 0 2.2414 0.7993 4.0492 2.3709 5.3707 1.407 1.2059 3.1228 1.8816 4.7687 2.4332l0.186 0.0616c1.4616 0.4831 2.9732 0.9831 3.876 1.7911 0.6281 0.5771 0.908 1.2042 0.908 2.0333 0 1.9001-1.4964 3.177-3.7234 3.177-1.7604 0-4.0785-0.8629-5.3049-3.2841l-0.3208-0.6343-4.3705 4.0458 0.2577 0.3645c1.3944 1.9745 4.541 5.2868 9.9459 5.2868 5.9597 0 10.122-3.8316 10.122-9.3173 0-3.1377-1.3766-4.9999-2.5287-6.0064" stroke="#80949F" stroke-width=".5"/>
</svg>
