<?xml version="1.0" encoding="UTF-8"?>
<svg fill="none" viewBox="0 0 8 11" xmlns="http://www.w3.org/2000/svg">
<path d="m6.5001 0.50008-2.5 2.5-2.5-2.5c-0.27615-0.27614-0.72386-0.27614-1 0-0.27614 0.27614-0.27614 0.72385-1e-6 1l2.7929 2.7929c0.39052 0.39052 1.0237 0.39052 1.4142 0l2.7929-2.7929c0.27614-0.27615 0.27614-0.72386 0-1-0.27615-0.27614-0.72386-0.27614-1 0zm0 6-2.5 2.5-2.5-2.5c-0.27615-0.27615-0.72386-0.27615-1 0-0.27614 0.27614-0.27614 0.72385-1e-6 1l2.7929 2.7929c0.39052 0.3905 1.0237 0.3905 1.4142 0l2.7929-2.7929c0.27614-0.27615 0.27614-0.72386 0-1-0.27615-0.27615-0.72386-0.27615-1 0z" clip-rule="evenodd" fill="#41F6D7" fill-rule="evenodd"/>
</svg>
