<?xml version="1.0" encoding="UTF-8"?>
<svg viewBox="0 0 20 20" xmlns="http://www.w3.org/2000/svg">
<path d="m8.2581 13.458 0.40878-0.4089-1.7169-1.7172-0.40877 0.4089-0.20439-0.2044c-0.32702-0.368-0.65404-0.5724-0.98107-0.5315-0.24526 0-0.44965 0.1635-0.61316 0.4088-0.24527 0.4089-0.12263 0.8586-0.08176 1.1448 0 0.0818 0.04088 0.1227 0.04088 0.2044 0 0.1227 0 0.2862-0.28614 0.3271-0.40878 0.1227-0.94019 0.2453-1.4716 0.5315-0.7358 0.4089-1.2263 0.7769-1.5125 1.1448-1.5125 1.9625-1.4307 3.6389-1.4307 3.7206 0 0.1227 0.040878 0.2045 0.12263 0.2453l1.1037 1.1448c0.08175 0.0818 0.16351 0.1227 0.24526 0.1227h0.12264c0.40877 0 1.8804-0.0818 3.5972-1.431 0.3679-0.2862 0.7358-0.7768 1.1446-1.5128 0.28614-0.4906 0.44965-1.0221 0.53141-1.4718 0.08175-0.2862 0.20439-0.2862 0.32702-0.2862 0.04088 0 0.12263 0.0408 0.20439 0.0408 0.16351 0.0409 0.32702 0.0818 0.53141 0.0818s0.40878-0.0409 0.61316-0.1635c0.24527-0.1636 0.40878-0.368 0.44966-0.6133 0.04088-0.3271-0.12263-0.6542-0.49053-0.9404l-0.24527-0.2453z" fill="#fff"/>
<path d="m16.884 4.8784 1.1348-0.55238c0.0421-0.04249 0.1261-0.08498 0.1681-0.12747l1.7232-2.337c0.1261-0.16996 0.1261-0.4249-0.042-0.55237l-1.1768-1.1897c-0.1261-0.12747-0.3783-0.16996-0.5464-0.042491l-2.3116 1.7421c-0.042 0.04249-0.084 0.08498-0.1261 0.16997l-0.5463 1.1472-4.1609 4.0791 1.7652 1.7846 4.1188-4.1216z" fill="#fff"/>
<path d="m17.853 13.045c-0.9891-1.0412-2.4134-1.416-3.7586-1.0412l-6.4488-6.8303c0.07912-0.37483 0.11869-0.70802 0.11869-1.0828 0-1.0412-0.39564-2.0824-1.1474-2.8737-1.0286-1.1245-2.5716-1.4993-3.9959-0.99955-0.07913 0.041648-0.19782 0.16659-0.23739 0.33318 0 0.12494 0.03957 0.24989 0.1187 0.37483l1.9386 2.0408c0.4352 0.45812 0.4352 1.2494 0 1.7076-0.4352 0.45813-1.1869 0.45813-1.6221 0l-1.9386-2.0408c-0.11869-0.08329-0.23738-0.12494-0.39564-0.08329-0.11869 0-0.23738 0.12494-0.27694 0.24988-0.47476 1.4577-0.11869 3.082 0.90996 4.1648 0.71215 0.79132 1.7408 1.2078 2.7694 1.2078 0.31651 0 0.67258-0.04165 0.98909-0.12495l6.4884 6.8303c-0.356 1.416 0.0396 2.9154 0.9891 3.9566 0.7517 0.7913 1.7013 1.1661 2.7299 1.1661 0.4352 0 0.8308-0.0833 1.266-0.2082 0.1187-0.0417 0.2374-0.1666 0.277-0.2916 0.0396-0.1249 0-0.2915-0.1187-0.3748l-1.9386-2.0408c-0.1978-0.2082-0.3561-0.5414-0.3561-0.8746s0.1187-0.6247 0.3561-0.8746 0.5143-0.3748 0.8308-0.3748 0.5935 0.1249 0.8309 0.3748l1.9386 2.0408c0.1187 0.0833 0.2373 0.1249 0.356 0.1249 0.1187-0.0416 0.2374-0.1249 0.277-0.2499 0.1187-0.4164 0.1978-0.8746 0.1978-1.3327 0-1.0829-0.3956-2.1241-1.1473-2.8737z" fill="#fff"/>
</svg>
