<svg viewBox="0 0 40 40" xmlns="http://www.w3.org/2000/svg"><rect width="40" height="40" rx="20" fill="#FF3E79"/><path d="M12 11a1 1 0 0 1 1-1h14a1 1 0 0 1 1 1v17.5a1.5 1.5 0 0 0-1.5 1.5h-1a1.5 1.5 0 0 0-3 0h-1a1.5 1.5 0 0 0-3 0h-1a1.5 1.5 0 0 0-3 0h-1a1.5 1.5 0 0 0-1.5-1.5V11zm9.416 10.788a4.236 4.236 0 0 1-3.086.594c-1.803-.335-3.24-1.85-3.47-3.671a4.318 4.318 0 0 1 4.994-4.831c1.802.287 3.25 1.764 3.547 3.556a4.247 4.247 0 0 1-.614 2.99l2.109 2.1a.97.97 0 0 1-1.37 1.37l-2.11-2.108zm-4.71-3.73a2.354 2.354 0 1 1 4.707.002 2.354 2.354 0 0 1-4.707-.002z" clip-rule="evenodd" fill="#fff" fill-rule="evenodd"/></svg>