<svg fill="none" viewBox="0 0 16 20" xmlns="http://www.w3.org/2000/svg"><path d="M0 1a1 1 0 0 1 1-1h14a1 1 0 0 1 1 1v17.5a1.5 1.5 0 0 0-1.5 1.5h-1a1.5 1.5 0 0 0-3 0h-1a1.5 1.5 0 0 0-3 0h-1a1.5 1.5 0 0 0-3 0h-1A1.5 1.5 0 0 0 0 18.5V1zm9.416 10.788a4.236 4.236 0 0 1-3.086.594c-1.803-.335-3.24-1.85-3.47-3.671A4.318 4.318 0 0 1 7.853 3.88c1.802.287 3.25 1.764 3.547 3.556a4.248 4.248 0 0 1-.614 2.99l2.109 2.1a.97.97 0 0 1-1.37 1.37l-2.11-2.108zm-4.71-3.73a2.354 2.354 0 1 1 4.707.002 2.354 2.354 0 0 1-4.707-.002z" clip-rule="evenodd" fill="#fff" fill-rule="evenodd"/></svg>