<svg fill="none" viewBox="0 0 98 52" xmlns="http://www.w3.org/2000/svg"><path d="M36.57.593a1 1 0 0 0-1 1v4.275a1 1 0 0 0 1 1h36.327c10.127 0 18.08 7.796 18.08 17.89 0 .285.231.517.517.517h5.262a.517.517 0 0 0 .517-.517c0-13.49-10.842-24.164-24.377-24.164H36.57zM7.107 25.712a.438.438 0 0 0-.438-.438H1.164a.438.438 0 0 0-.438.438c0 13.649 10.223 24.919 23.443 25.656l42.342.038a1 1 0 0 0 1-1v-4.58a1 1 0 0 0-1-1H25.628c-10.236-.028-18.52-8.544-18.52-19.114z" clip-rule="evenodd" fill="#6B7B84" fill-rule="evenodd" stroke="#80949F" stroke-width=".5"/><path d="M28.142 39.792c2.739 0 5.02-.532 7.273-1.627l.156-.145v-7.835l-.843 1.08c-1.623 1.772-3.802 2.748-6.267 2.748-4.591 0-9.203-2.967-9.203-8.64 0-4.286 3.18-8.841 9.042-8.841 1.17 0 4.014.276 6.424 2.836l.847 1.043v-7.799l-.149-.147c-2.296-1.15-4.637-1.71-7.308-1.71-4.567 0-8.131 1.202-10.97 3.674-1.8 1.548-4.803 5.02-4.803 10.863 0 4.32 1.539 7.695 4.826 10.622 3.059 2.681 6.45 3.877 10.975 3.877" clip-rule="evenodd" fill="#6B7B84" fill-rule="evenodd"/><path d="M28.142 39.792c2.739 0 5.02-.532 7.273-1.627l.156-.145v-7.835l-.843 1.08c-1.623 1.772-3.802 2.748-6.267 2.748-4.591 0-9.203-2.967-9.203-8.64 0-4.286 3.18-8.841 9.042-8.841 1.17 0 4.014.276 6.424 2.836l.847 1.043v-7.799l-.149-.147c-2.296-1.15-4.637-1.71-7.308-1.71-4.567 0-8.131 1.202-10.97 3.674-1.8 1.548-4.803 5.02-4.803 10.863 0 4.32 1.539 7.695 4.826 10.622 3.059 2.681 6.45 3.877 10.975 3.877" stroke="#80949F" stroke-width=".5"/><path d="M47.911 17.289h1.364c1.252 0 2.678.068 3.758.804.527.377 1.411 1.248 1.411 2.832 0 1.17-.517 2.219-1.37 2.874-1.096.794-2.397.749-3.443.749h-1.72v-7.259zm3.066 12.529c3.231 0 5.76-.932 7.517-2.688 2.16-2.156 2.484-5.123 2.484-6.686 0-1.674-.397-4.937-3.057-7.3-2.18-1.911-4.507-2.388-7.789-2.388h-8.754v29.037h6.658v-9.975h2.94z" clip-rule="evenodd" fill="#6B7B84" fill-rule="evenodd"/><path d="M47.911 17.289v-.25h-.25v.25h.25zm5.122.804.145-.203-.004-.003-.141.206zm.04 5.706.147.202.005-.004-.152-.198zm-5.162.749h-.25v.25h.25v-.25zm10.583 2.582-.177-.177.177.177zm-.573-13.986.166-.187-.001-.001-.165.188zm-16.543-2.388v-.25h-.25v.25h.25zm0 29.037h-.25v.25h.25v-.25zm6.658 0v.25h.25v-.25h-.25zm0-9.975v-.25h-.25v.25h.25zm-.125-12.279h1.364v-.5h-1.364v.5zm1.364 0c1.258 0 2.609.074 3.617.761l.282-.413c-1.151-.784-2.653-.848-3.898-.848v.5zm3.613.758c.487.348 1.307 1.153 1.307 2.628h.5c0-1.691-.95-2.63-1.517-3.035l-.29.407zm1.307 2.628c0 1.096-.484 2.07-1.274 2.676l.304.396c.92-.704 1.47-1.828 1.47-3.072h-.5zm-1.268 2.672c-1.018.738-2.23.701-3.296.701v.5c1.025 0 2.417.055 3.59-.797l-.294-.404zm-3.296.701h-1.72v.5h1.72v-.5zm-1.47.25V17.29h-.5v7.26h.5zm2.816 5.52c3.28 0 5.88-.947 7.694-2.76l-.353-.354c-1.699 1.698-4.158 2.615-7.341 2.615v.5zm7.694-2.76c2.232-2.228 2.557-5.279 2.557-6.864h-.5c0 1.543-.321 4.424-2.41 6.51l.353.353zm2.557-6.864c0-1.701-.402-5.054-3.14-7.487l-.333.374c2.581 2.293 2.973 5.468 2.973 7.113h.5zm-3.142-7.488c-2.246-1.968-4.644-2.45-7.954-2.45v.5c3.255 0 5.51.473 7.624 2.326l.33-.376zm-7.954-2.45h-8.754v.5h8.754v-.5zm-9.004.25v29.037h.5V10.756h-.5zm.25 29.287h6.659v-.5h-6.66v.5zm6.909-.25v-9.974h-.5v9.974h.5zm-.25-9.724h2.94v-.5h-2.94v.5z" fill="#80949F"/><path d="M80.953 24.469c-1.448-1.283-3.468-2.026-5.762-2.797-1.634-.569-2.534-.882-3.135-1.43-.474-.402-.685-.838-.685-1.416 0-1.264.86-2.614 3.27-2.614 1.64 0 3.011.7 4.079 2.081l.424.549 3.516-4.476-.32-.321c-2.151-2.152-4.985-3.29-8.196-3.29-6.478 0-9.378 4.215-9.378 8.392 0 2.242.8 4.05 2.37 5.37 1.408 1.207 3.124 1.882 4.77 2.434l.185.062c1.462.483 2.974.983 3.876 1.79.629.578.908 1.205.908 2.034 0 1.9-1.496 3.177-3.723 3.177-1.76 0-4.078-.863-5.305-3.284l-.32-.634-4.371 4.045.258.365c1.394 1.974 4.54 5.287 9.945 5.287 5.96 0 10.122-3.832 10.122-9.318 0-3.137-1.376-5-2.528-6.006" clip-rule="evenodd" fill="#6B7B84" fill-rule="evenodd"/><path d="M80.953 24.469c-1.448-1.283-3.468-2.026-5.762-2.797-1.634-.569-2.534-.882-3.135-1.43-.474-.402-.685-.838-.685-1.416 0-1.264.86-2.614 3.27-2.614 1.64 0 3.011.7 4.079 2.081l.424.549 3.516-4.476-.32-.321c-2.151-2.152-4.985-3.29-8.196-3.29-6.478 0-9.378 4.215-9.378 8.392 0 2.242.8 4.05 2.37 5.37 1.408 1.207 3.124 1.882 4.77 2.434l.185.062c1.462.483 2.974.983 3.876 1.79.629.578.908 1.205.908 2.034 0 1.9-1.496 3.177-3.723 3.177-1.76 0-4.078-.863-5.305-3.284l-.32-.634-4.371 4.045.258.365c1.394 1.974 4.54 5.287 9.945 5.287 5.96 0 10.122-3.832 10.122-9.318 0-3.137-1.376-5-2.528-6.006" stroke="#80949F" stroke-width=".5"/></svg>