<svg viewBox="0 0 119 32" xmlns="http://www.w3.org/2000/svg"><rect width="119" height="32" rx="16" fill="#FF3E79"/><path d="M20.003 14.24c0 .288-.056.52-.168.696-.112.168-.236.3-.372.396-.16.112-.34.188-.54.228v.12c.224.048.424.136.6.264.152.112.288.272.408.48.128.2.192.472.192.816v.78c0 1.4-.7 2.1-2.1 2.1h-3.3c-1.4 0-2.1-.7-2.1-2.1v-.6c0-.2.1-.3.3-.3h1.32c.2 0 .3.1.3.3v.36c0 .44.22.66.66.66h2.34c.44 0 .66-.22.66-.66v-.54c0-.44-.22-.66-.66-.66h-1.74c-.2 0-.3-.1-.3-.3V15.2c0-.2.1-.3.3-.3h1.62c.44 0 .66-.22.66-.66v-.42c0-.44-.22-.66-.66-.66h-2.1c-.44 0-.66.22-.66.66v.36c0 .2-.1.3-.3.3h-1.32c-.2 0-.3-.1-.3-.3v-.6c0-1.4.7-2.1 2.1-2.1h3.06c1.4 0 2.1.7 2.1 2.1v.66zm3.49 4.02-.54 1.44a.626.626 0 0 1-.156.216c-.056.056-.144.084-.264.084h-1.5c-.2 0-.26-.1-.18-.3l2.94-7.8c.08-.2.24-.3.48-.3h1.74c.12 0 .208.028.264.084a.626.626 0 0 1 .156.216l2.94 7.8c.08.2.02.3-.18.3h-1.5c-.12 0-.212-.028-.276-.084a.727.727 0 0 1-.144-.216l-.54-1.44h-3.24zm2.64-1.68-.96-2.58h-.12l-.96 2.58h2.04zm6.13-1.8h1.62l1.56-2.88a.684.684 0 0 1 .18-.216.51.51 0 0 1 .3-.084h1.5c.088 0 .152.028.192.084s.036.128-.012.216l-2.04 3.66 2.28 4.14c.048.088.052.16.012.216s-.104.084-.192.084h-1.5a.51.51 0 0 1-.3-.084.684.684 0 0 1-.18-.216l-1.74-3.24h-1.68v3.24c0 .2-.1.3-.3.3h-1.32c-.2 0-.3-.1-.3-.3v-7.8c0-.2.1-.3.3-.3h1.32c.2 0 .3.1.3.3v2.88zm8.391 3.48-.54 1.44a.626.626 0 0 1-.156.216c-.056.056-.144.084-.264.084h-1.5c-.2 0-.26-.1-.18-.3l2.94-7.8c.08-.2.24-.3.48-.3h1.74c.12 0 .208.028.264.084a.626.626 0 0 1 .156.216l2.94 7.8c.08.2.02.3-.18.3h-1.5c-.12 0-.212-.028-.276-.084a.727.727 0 0 1-.144-.216l-.54-1.44h-3.24zm2.64-1.68-.96-2.58h-.12l-.96 2.58h2.04zm11.23-2.34c0 .288-.056.52-.168.696-.112.168-.236.3-.372.396-.16.112-.34.188-.54.228v.12c.224.048.424.136.6.264.152.112.288.272.408.48.128.2.192.472.192.816v.78c0 1.4-.7 2.1-2.1 2.1h-3.3c-1.4 0-2.1-.7-2.1-2.1v-.6c0-.2.1-.3.3-.3h1.32c.2 0 .3.1.3.3v.36c0 .44.22.66.66.66h2.34c.44 0 .66-.22.66-.66v-.54c0-.44-.22-.66-.66-.66h-1.74c-.2 0-.3-.1-.3-.3V15.2c0-.2.1-.3.3-.3h1.62c.44 0 .66-.22.66-.66v-.42c0-.44-.22-.66-.66-.66h-2.1c-.44 0-.66.22-.66.66v.36c0 .2-.1.3-.3.3h-1.32c-.2 0-.3-.1-.3-.3v-.6c0-1.4.7-2.1 2.1-2.1h3.06c1.4 0 2.1.7 2.1 2.1v.66zm3.49 4.02-.54 1.44a.626.626 0 0 1-.156.216c-.056.056-.144.084-.264.084h-1.5c-.2 0-.26-.1-.18-.3l2.94-7.8c.08-.2.24-.3.48-.3h1.74c.12 0 .208.028.264.084a.626.626 0 0 1 .156.216l2.94 7.8c.08.2.02.3-.18.3h-1.5c-.12 0-.212-.028-.276-.084a.727.727 0 0 1-.144-.216l-.54-1.44h-3.24zm2.64-1.68-.96-2.58h-.12l-.96 2.58h2.04zm6.795 3.12c0 .2-.1.3-.3.3h-1.32c-.2 0-.3-.1-.3-.3v-6.42h-2.4c-.2 0-.3-.1-.3-.3V11.9c0-.2.1-.3.3-.3h6.72c.2 0 .3.1.3.3v1.08c0 .2-.1.3-.3.3h-2.4v6.42zm8.729-5.58c1.4 0 2.1.7 2.1 2.1v1.68c0 1.4-.7 2.1-2.1 2.1h-4.8c-.2 0-.3-.1-.3-.3v-7.8c0-.2.1-.3.3-.3h1.32c.2 0 .3.1.3.3v2.22h3.18zm-.48 4.2c.44 0 .66-.22.66-.66v-1.2c0-.44-.22-.66-.66-.66h-2.7v2.52h2.7z" fill="#fff"/><rect x="87" y="4" width="24" height="24" rx="12" fill="#FF3E79"/><path d="m99.8 16-3.008-2.77a1 1 0 0 1-.007-1.466l.135-.127a1 1 0 0 1 1.364-.004l4.654 4.31a.079.079 0 0 1 0 .114l-4.591 4.252a1.092 1.092 0 1 1-1.482-1.605L99.8 16z" clip-rule="evenodd" fill="#fff" fill-rule="evenodd"/></svg>