<svg viewBox="0 0 40 40" xmlns="http://www.w3.org/2000/svg"><rect width="40" height="40" rx="20" fill="#FF3E79"/><path d="m18.258 23.458.409-.409-1.717-1.717-.409.409-.204-.205c-.327-.368-.654-.572-.981-.531-.246 0-.45.163-.613.409-.246.409-.123.858-.082 1.144 0 .082.04.123.04.205 0 .123 0 .286-.285.327-.41.123-.94.245-1.472.531-.736.41-1.226.777-1.513 1.145-1.512 1.963-1.43 3.64-1.43 3.72 0 .124.04.205.122.246l1.104 1.145c.082.082.164.123.245.123h.123c.409 0 1.88-.082 3.597-1.431.368-.287.736-.777 1.145-1.513.286-.49.45-1.022.531-1.472.082-.286.205-.286.327-.286.041 0 .123.04.205.04.163.042.327.082.53.082.205 0 .41-.04.614-.163.245-.164.409-.368.45-.613.04-.327-.123-.654-.49-.94l-.246-.246zm8.626-8.58 1.135-.552c.042-.043.126-.085.168-.128l1.723-2.337c.126-.17.126-.425-.042-.552l-1.177-1.19c-.126-.127-.378-.17-.546-.042l-2.312 1.742a.58.58 0 0 0-.126.17l-.546 1.147L21 17.215 22.765 19l4.119-4.122z" fill="#fff"/><path d="M27.853 23.045a3.747 3.747 0 0 0-3.759-1.041l-6.448-6.83c.079-.375.118-.708.118-1.083a4.184 4.184 0 0 0-1.147-2.874 3.697 3.697 0 0 0-3.996-1 .542.542 0 0 0-.237.334c0 .124.04.25.118.374l1.939 2.041c.435.458.435 1.25 0 1.708a1.129 1.129 0 0 1-1.622 0l-1.939-2.041c-.118-.083-.237-.125-.395-.083-.12 0-.238.125-.277.25-.475 1.457-.12 3.081.91 4.164.712.792 1.74 1.208 2.769 1.208.317 0 .673-.042.99-.125l6.488 6.83a4.339 4.339 0 0 0 .989 3.957A3.668 3.668 0 0 0 25.084 30c.435 0 .83-.083 1.266-.208a.491.491 0 0 0 .277-.292.346.346 0 0 0-.12-.374l-1.938-2.041c-.198-.208-.356-.542-.356-.875s.119-.625.356-.874.515-.375.831-.375.594.125.83.375l1.94 2.04a.617.617 0 0 0 .356.125c.118-.041.237-.125.277-.25A4.92 4.92 0 0 0 29 25.92c0-1.083-.395-2.124-1.147-2.874z" fill="#fff"/></svg>