<svg viewBox="0 0 136 32" xmlns="http://www.w3.org/2000/svg"><rect width="136" height="32" rx="16" fill="#FF3E79"/><path d="M28.305 18.02c0 1.4-.7 2.1-2.1 2.1h-3.66c-1.4 0-2.1-.7-2.1-2.1v-4.44c0-1.4.7-2.1 2.1-2.1h3.66c1.4 0 2.1.7 2.1 2.1v4.44zm-1.92-4.2c0-.44-.22-.66-.66-.66h-2.7c-.44 0-.66.22-.66.66v3.96c0 .44.22.66.66.66h2.7c.44 0 .66-.22.66-.66v-3.96zm7.349 5.88c0 .2-.1.3-.3.3h-1.32c-.2 0-.3-.1-.3-.3v-6.42h-2.4c-.2 0-.3-.1-.3-.3V11.9c0-.2.1-.3.3-.3h6.72c.2 0 .3.1.3.3v1.08c0 .2-.1.3-.3.3h-2.4v6.42zm10.829-8.1c.2 0 .3.1.3.3v7.8c0 .2-.1.3-.3.3h-1.32c-.2 0-.3-.1-.3-.3v-6.42h-3.66v6.42c0 .2-.1.3-.3.3h-1.32c-.2 0-.3-.1-.3-.3v-7.8c0-.2.1-.3.3-.3h6.9zm3.992 5.94v2.16c0 .2-.1.3-.3.3h-1.32c-.2 0-.3-.1-.3-.3v-7.8c0-.2.1-.3.3-.3h4.92c1.4 0 2.1.7 2.1 2.1v1.74c0 1.4-.7 2.1-2.1 2.1h-3.3zm0-4.26v2.58h2.82c.44 0 .66-.22.66-.66v-1.26c0-.44-.22-.66-.66-.66h-2.82zm8.168 4.98-.54 1.44a.626.626 0 0 1-.156.216c-.056.056-.144.084-.264.084h-1.5c-.2 0-.26-.1-.18-.3l2.94-7.8c.08-.2.24-.3.48-.3h1.74c.12 0 .208.028.264.084a.626.626 0 0 1 .156.216l2.94 7.8c.08.2.02.3-.18.3h-1.5c-.12 0-.212-.028-.276-.084a.727.727 0 0 1-.144-.216l-.54-1.44h-3.24zm2.64-1.68-.96-2.58h-.12l-.96 2.58h2.04zm4.21-4.68c0-.2.1-.3.3-.3h4.5c1.4 0 2.1.7 2.1 2.1v.42c0 .288-.044.52-.132.696-.088.168-.184.3-.288.396a1.032 1.032 0 0 1-.42.228v.12c.24.048.46.136.66.264.16.112.308.272.444.48.144.2.216.472.216.816v.78c0 1.4-.7 2.1-2.1 2.1h-4.98c-.2 0-.3-.1-.3-.3v-7.8zm4.8 6.42c.44 0 .66-.22.66-.66v-.54c0-.44-.22-.66-.66-.66h-2.88v1.86h2.88zm-2.88-5.04v1.5h2.4c.44 0 .66-.22.66-.66v-.18c0-.44-.22-.66-.66-.66h-2.4zm12.511 1.26-3.24 5.16c-.064.088-.132.16-.204.216-.064.056-.156.084-.276.084h-1.62c-.2 0-.3-.1-.3-.3v-7.8c0-.2.1-.3.3-.3h1.32c.2 0 .3.1.3.3v5.16h.12l3.24-5.16c.064-.088.128-.16.192-.216a.457.457 0 0 1 .288-.084h1.62c.2 0 .3.1.3.3v7.8c0 .2-.1.3-.3.3h-1.32c-.2 0-.3-.1-.3-.3v-5.16h-.12zm7.588 5.16c0 .2-.1.3-.3.3h-1.32c-.2 0-.3-.1-.3-.3v-6.42h-2.4c-.2 0-.3-.1-.3-.3V11.9c0-.2.1-.3.3-.3h6.72c.2 0 .3.1.3.3v1.08c0 .2-.1.3-.3.3h-2.4v6.42zm8.728-5.58c1.4 0 2.1.7 2.1 2.1v1.68c0 1.4-.7 2.1-2.1 2.1h-4.8c-.2 0-.3-.1-.3-.3v-7.8c0-.2.1-.3.3-.3h1.32c.2 0 .3.1.3.3v2.22h3.18zm-.48 4.2c.44 0 .66-.22.66-.66v-1.2c0-.44-.22-.66-.66-.66h-2.7v2.52h2.7z" fill="#fff"/><rect x="99.429" y="4" width="27.429" height="24" rx="12" fill="#FF3E79"/><path d="m114.06 16-3.385-2.728a1 1 0 0 1-.007-1.552l.248-.203a1 1 0 0 1 1.263-.004l5.446 4.412a.095.095 0 0 1 0 .15l-5.347 4.332a1.156 1.156 0 1 1-1.453-1.8L114.06 16z" clip-rule="evenodd" fill="#fff" fill-rule="evenodd"/></svg>